<?xml version="1.0" standalone="no"?>
<!DOCTYPE svg PUBLIC "-//W3C//DTD SVG 20010904//EN"
 "http://www.w3.org/TR/2001/REC-SVG-20010904/DTD/svg10.dtd">
<svg version="1.0" xmlns="http://www.w3.org/2000/svg"
 width="447.000000pt" height="466.000000pt" viewBox="0 0 447.000000 466.000000"
 preserveAspectRatio="xMidYMid meet">

<g transform="translate(0.000000,466.000000) scale(0.100000,-0.100000)"
fill="currentColor" stroke="none">
<path d="M1780 4571 c-287 -64 -538 -239 -645 -451 -39 -76 -77 -190 -61 -184
6 2 27 32 45 67 124 228 365 417 619 484 83 23 119 26 247 27 115 0 166 -4
218 -18 98 -26 181 -60 258 -106 l67 -40 -36 -37 c-43 -42 -33 -51 28 -24 39
17 46 18 66 4 43 -28 125 -138 170 -228 67 -135 87 -224 87 -380 0 -115 -3
-140 -27 -212 -62 -188 -212 -343 -423 -434 -104 -45 -377 -139 -402 -138 -23
1 -22 2 7 9 60 14 47 20 -44 20 -217 0 -423 94 -580 264 -70 75 -151 224 -173
319 -51 213 3 419 147 565 80 81 146 120 269 161 152 51 319 42 444 -25 158
-85 236 -236 227 -437 -5 -90 -8 -104 -46 -181 -88 -178 -257 -271 -432 -238
-156 29 -239 115 -248 258 -6 90 9 149 51 199 36 45 81 65 140 65 110 0 197
-74 197 -167 0 -20 3 -24 11 -16 19 19 1 98 -34 150 -46 69 -109 98 -207 98
-87 -1 -133 -20 -192 -82 -60 -62 -83 -123 -83 -223 0 -103 27 -171 99 -248
83 -89 191 -132 331 -132 139 0 231 36 327 128 117 111 168 234 168 402 0 176
-48 301 -154 405 -111 109 -235 156 -405 156 -155 -1 -260 -28 -380 -100 -116
-68 -225 -194 -271 -312 -127 -322 -10 -695 282 -896 138 -95 268 -144 443
-167 l100 -13 -40 -17 c-75 -32 -184 -107 -229 -157 -75 -84 -126 -215 -126
-324 0 -94 42 -225 89 -280 10 -11 23 -40 30 -65 46 -160 162 -272 327 -314
82 -21 162 -20 262 4 160 38 263 109 326 223 44 80 58 135 58 227 -1 199 -135
350 -313 350 -185 0 -314 -186 -236 -340 53 -106 177 -121 261 -31 35 36 33
38 -19 11 -177 -90 -289 155 -121 267 181 119 394 -96 332 -336 -34 -132 -111
-226 -234 -284 -64 -30 -73 -32 -187 -32 -109 0 -125 2 -176 26 -63 30 -128
84 -171 143 -36 50 -36 62 1 35 19 -14 49 -23 83 -26 l53 -4 -50 26 c-27 14
-65 42 -84 62 -34 36 -34 36 -28 114 4 62 12 90 38 138 69 131 225 239 454
316 61 20 142 50 181 66 l71 29 65 -24 c192 -73 393 -49 560 65 32 21 60 39
63 39 11 0 74 -145 90 -205 66 -247 -17 -507 -221 -695 -82 -74 -122 -99 -332
-208 -238 -124 -312 -174 -410 -277 -88 -91 -154 -208 -172 -304 -24 -130 -3
-294 54 -413 14 -29 24 -53 22 -55 -1 -1 -27 19 -58 47 -174 155 -209 467 -81
713 48 91 152 197 253 256 80 48 80 63 0 36 -73 -24 -187 -102 -252 -173 -168
-182 -204 -485 -87 -722 72 -145 181 -234 356 -290 l84 -27 49 -75 c122 -186
310 -300 518 -314 211 -15 389 64 497 220 21 31 36 58 33 61 -2 3 -36 -19 -74
-49 -146 -113 -263 -159 -404 -159 -159 1 -317 76 -440 210 -33 36 -60 69 -60
72 0 3 35 4 77 3 143 -7 289 41 371 121 48 47 56 68 15 39 -41 -29 -110 -62
-162 -78 -101 -32 -330 -26 -353 9 -19 28 -39 118 -45 197 -15 218 82 430 260
566 38 28 148 93 244 143 203 105 189 105 315 22 132 -86 214 -201 253 -351
22 -85 16 -277 -13 -365 -61 -191 -175 -323 -322 -374 -76 -26 -113 -34 -106
-23 3 6 18 13 32 16 70 18 188 122 252 222 77 122 103 292 63 423 -53 175
-203 291 -377 291 -227 0 -382 -222 -286 -411 32 -65 89 -99 162 -99 37 0 130
30 130 42 0 2 -31 3 -69 3 -55 0 -75 4 -98 21 -95 71 -86 228 18 317 130 112
352 50 436 -121 26 -52 28 -66 28 -172 0 -114 0 -116 -41 -200 -47 -98 -112
-174 -196 -232 -91 -61 -161 -89 -241 -97 -66 -6 -70 -8 -49 -19 33 -19 148
-42 207 -42 193 0 395 127 489 308 35 69 40 73 65 68 14 -3 62 -11 106 -17
145 -21 298 26 401 123 110 104 174 256 174 413 0 172 -63 318 -195 451 -44
44 -91 87 -105 96 l-24 15 35 17 c55 26 148 105 202 171 238 294 228 825 -22
1200 -61 90 -199 231 -264 270 l-44 25 -6 123 c-7 149 -32 251 -92 374 -119
245 -360 438 -641 515 -105 28 -358 32 -444 6 -148 -45 -130 -45 -187 -4 -66
47 -198 109 -293 136 -109 32 -351 37 -470 11z m1323 -216 c356 -82 640 -359
708 -689 10 -50 19 -120 19 -155 0 -56 -2 -62 -17 -55 -67 29 -161 55 -222 60
-67 6 -72 9 -77 33 -14 67 -59 191 -87 241 -101 182 -259 332 -420 397 -72 29
-200 63 -242 63 -23 0 -41 11 -70 40 -21 22 -36 43 -32 47 31 30 332 43 440
18z m-164 -201 c143 -67 293 -199 379 -333 236 -365 109 -875 -266 -1065 -117
-59 -291 -75 -397 -35 l-55 20 48 38 c143 113 239 267 288 461 35 141 44 360
20 500 -26 146 -96 335 -157 422 -11 14 -19 29 -19 33 0 16 88 -7 159 -41z
m716 -710 c33 -8 84 -26 113 -39 62 -28 63 -37 31 -161 -30 -119 -97 -248
-166 -324 l-60 -64 -27 59 c-15 33 -41 82 -58 108 l-31 48 18 62 c9 34 22 76
27 92 5 17 12 78 15 138 l6 107 36 -6 c20 -3 63 -12 96 -20z m-775 -82 c-41
-220 -132 -387 -276 -506 -83 -69 -153 -106 -316 -167 -228 -86 -386 -180
-472 -281 -46 -54 -94 -149 -104 -208 l-8 -45 -20 55 c-13 39 -19 81 -19 145
0 80 4 97 31 155 79 167 216 261 549 380 248 89 369 160 481 283 65 72 141
196 151 247 3 19 8 29 11 22 2 -7 -2 -43 -8 -80z m1154 -142 c200 -215 298
-494 283 -809 -10 -222 -77 -389 -211 -525 -43 -45 -71 -70 -62 -56 9 14 37
66 61 115 60 123 79 224 72 374 -7 164 -48 276 -150 415 -58 78 -124 134 -211
178 -34 17 -62 32 -64 33 -2 1 11 24 28 51 35 57 83 176 100 254 19 87 15 85
66 48 25 -18 64 -53 88 -78z m-571 -287 c81 -172 111 -305 111 -483 0 -143
-18 -244 -70 -389 -48 -136 -103 -222 -208 -327 -99 -98 -172 -149 -341 -239
-301 -160 -447 -307 -521 -525 -26 -74 -27 -323 -2 -387 18 -48 18 -48 -21
-29 -94 49 -171 225 -171 391 0 139 50 259 157 374 82 89 202 170 393 265 85
43 192 102 236 132 152 100 292 278 351 445 21 58 27 99 31 191 4 104 2 126
-22 207 -26 93 -62 173 -99 222 l-20 28 51 56 c28 32 61 77 74 101 12 24 26
44 29 44 3 0 22 -35 42 -77z m327 -90 c111 -54 228 -199 281 -350 30 -84 37
-274 15 -379 -19 -86 -89 -240 -134 -292 l-28 -34 -107 37 c-68 23 -137 39
-187 43 l-79 7 39 86 c57 123 81 222 87 370 6 139 -10 267 -50 400 l-23 74 40
37 c47 43 58 43 146 1z m-18 -1079 c42 -15 75 -30 73 -34 -12 -20 -95 -67
-163 -92 l-77 -28 81 3 c69 3 93 9 158 40 76 36 78 36 109 20 18 -9 68 -52
113 -97 121 -121 174 -245 174 -404 -1 -133 -49 -253 -140 -343 -96 -97 -203
-135 -349 -127 -45 3 -86 9 -92 15 -6 6 -4 31 6 74 19 81 19 216 0 296 -16 70
-62 177 -96 224 -11 16 -19 33 -16 36 3 3 53 7 110 10 97 5 108 4 160 -20 80
-37 117 -95 117 -187 0 -45 -6 -78 -19 -103 -24 -48 -12 -47 32 2 61 68 62
172 3 259 -25 35 -50 56 -101 82 -64 33 -73 35 -164 34 -58 -1 -113 -8 -140
-17 l-44 -16 -51 45 c-28 24 -86 62 -128 85 -43 22 -78 41 -78 43 0 1 25 20
56 41 56 39 184 169 184 188 0 6 37 8 103 4 77 -3 121 -11 179 -33z"/>
<path d="M880 3733 c-57 -28 -95 -56 -160 -122 -99 -99 -153 -193 -195 -336
-35 -121 -43 -188 -50 -407 -9 -285 -38 -359 -194 -511 -137 -133 -153 -150
-167 -184 -31 -71 -13 -113 97 -231 67 -72 74 -103 38 -174 -14 -28 -19 -50
-15 -72 7 -34 38 -76 55 -76 16 0 13 -15 -10 -54 -26 -45 -20 -76 26 -135 43
-54 49 -77 41 -147 -3 -30 -9 -79 -12 -109 -14 -114 35 -194 143 -235 81 -30
201 -29 366 4 228 46 326 31 432 -66 86 -78 154 -236 255 -590 53 -184 59
-149 18 102 -50 311 -163 526 -320 610 -90 48 -190 52 -383 15 -246 -48 -374
-33 -423 47 -25 40 -28 89 -11 185 15 88 5 141 -41 210 -64 94 -45 118 89 111
42 -2 70 1 68 7 -2 5 -47 28 -101 51 -53 23 -104 48 -112 55 -18 15 -15 49 11
122 26 71 11 109 -75 198 -100 103 -101 138 -12 224 28 27 48 54 45 62 -3 7 0
13 7 13 6 0 8 -4 5 -10 -3 -5 -2 -10 4 -10 5 0 39 33 76 73 122 133 175 283
175 494 0 230 35 405 111 561 46 95 61 115 176 233 69 71 124 129 122 129 -2
0 -38 -17 -79 -37z m-343 -775 c-3 -8 -6 -5 -6 6 -1 11 2 17 5 13 3 -3 4 -12
1 -19z m-50 -1374 c-3 -3 -12 -4 -19 -1 -8 3 -5 6 6 6 11 1 17 -2 13 -5z m660
-570 c-3 -3 -12 -4 -19 -1 -8 3 -5 6 6 6 11 1 17 -2 13 -5z m-520 -80 c-3 -3
-12 -4 -19 -1 -8 3 -5 6 6 6 11 1 17 -2 13 -5z m40 0 c-3 -3 -12 -4 -19 -1 -8
3 -5 6 6 6 11 1 17 -2 13 -5z"/>
</g>
</svg>
